 http://imageshack.us/m/88/2497/driveangry2011720pblura.jpg

Country.......: USA
Genre.........: Action, Thriller, Fantasy
Date release..: 24.02.2011 [World]
Director......: Patrick Lussier
Writers.......: Todd Farmer, Patrick Lussier
Duration......: 105 min.
More..........: http://www.imdb.com/title/tt1502404
Trailer.......: http://www.imdb.com/video/imdb/vi1259117081
Trailer.......:

Pilot :
A vengeful father escapes from hell and chases after the men who killed his daughter and kidnapped his granddaughter.

Cats :
Nicolas Cage   ...   Milton
Amber Heard ... Piper
William Fichtner ... The Accountant
Billy Burke ... Jonah King
David Morse ... Webster
Todd Farmer ... Frank
Christa Campbell ... Mona
Charlotte Ross ... Candy
Tom Atkins ... Cap
Jack McGee ... Fat Lou
Katy Mixon ... Norma Jean
Wanetah Walmsley ... American Indian Mother
Robin McGee ... Guy with Camera Phone
Fabian C. Moreno ... Latino Busboy
Edrick Browne ... Rookie

Data Technical :
!!! SAMPLE !!!
Audio.....: English
Subtitles.: English .srt, Portuguese .srt, Spanish .srt, Swedish .srt, Polskie .txt
Format                           : Matroska
File size                        : 7.65 GiB
Duration                         : 1h 44mn
Overall bit rate                 : 10.5 Mbps
Encoded date                     : UTC 2011-05-14 17:58:16
Writing application              : mkvmerge v4.0.0 ('The Stars were mine') built on Jun  6 2010 16:18:42
Writing library                  : libebml v1.0.0 + libmatroska v1.0.0
Video
ID                               : 1
Format                           : AVC
Format/Info                      : Advanced Video Codec
Format profile                   : High@L4.1
Format settings, CABAC           : Yes
Format settings, ReFrames        : 4 frames
Muxing mode                      : Container profile=Unknown@4.1
Codec ID                         : V_MPEG4/ISO/AVC
Duration                         : 1h 44mn
Bit rate                         : 8 963 Kbps
Width                            : 1 920 pixels
Height                           : 1 080 pixels
Display aspect ratio             : 16:9
Frame rate                       : 23.976 fps
Color space                      : YUV
Chroma subsampling               : 4:2:0
Bit depth                        : 8 bits
Scan type                        : Progressive
Bits/(Pixel*Frame)               : 0.180
Stream size                      : 6.40 GiB (84%)
Writing library                  : x264 core 115 r1995 c1e60b9
Audio
ID                               : 2
Format                           : DTS
Format/Info                      : Digital Theater Systems
Codec ID                         : A_DTS
Duration                         : 1h 44mn
Bit rate mode                    : Constant
Bit rate                         : 1 510 Kbps
Channel(s)                       : 6 channels
Channel positions                : Front: L C R, Side: L R, LFE
Sampling rate                    : 48.0 KHz
Bit depth                        : 24 bits
Stream size                      : 1.10 GiB (14%)
Menu
00:00:00.000                     : en:00:00:00.000
00:08:27.632                     : en:00:08:27.632
00:12:33.586                     : en:00:12:33.586
00:16:32.533                     : en:00:16:32.533
00:19:43.682                     : en:00:19:43.682
00:26:28.003                     : en:00:26:28.003
00:30:20.110                     : en:00:30:20.110
00:35:38.469                     : en:00:35:38.469
00:42:12.113                     : en:00:42:12.113
00:50:48.212                     : en:00:50:48.212
00:54:09.579                     : en:00:54:09.579
00:58:14.783                     : en:00:58:14.783
01:02:11.436                     : en:01:02:11.436
01:10:48.702                     : en:01:10:48.702
01:16:05.477                     : en:01:16:05.477
01:21:48.820                     : en:01:21:48.820
01:27:33.206                     : en:01:27:33.206
01:33:57.632                     : en:01:33:57.632

Screen : 
http://imageshack.us/m/8/3315/driveangry2011s1.jpg 
http://imageshack.us/m/535/7018/driveangry2011s2.jpg 
http://imageshack.us/m/59/8041/driveangry2011s3.jpg 
http://imageshack.us/m/577/4029/driveangry2011s4.jpg 
http://imageshack.us/m/708/9817/driveangry2011s5.jpg